<?xml version="1.0" ?><svg id="Layer_1" style="enable-background:new 0 0 64 64;" version="1.1" viewBox="0 0 64 64" xml:space="preserve" xmlns="http://www.w3.org/2000/svg" xmlns:xlink="http://www.w3.org/1999/xlink"><style type="text/css">
	.st0{fill:#62BEE7;}
	.st1{fill:#474E5E;}
	.st2{fill:#F3EEE4;}
	.st3{fill:#FFFFFF;}
	.st4{fill:#E8DCCA;}
	.st5{opacity:0.1;fill:#231F20;}
	.st6{fill:#506268;}
	.st7{fill:#EB5151;}
	.st8{fill:#C64444;}
	.st9{fill:#9CCB5B;}
	.st10{fill:#404A4C;}
	.st11{fill:#676767;}
	.st12{fill:#E0E1E5;}
	.st13{fill:#9D9EA0;}
	.st14{fill:#B3B4B7;}
	.st15{opacity:0.1;}
	.st16{fill:#231F20;}
	.st17{fill:#FACC20;}
	.st18{fill:#FDEF34;}
	.st19{fill:#F7A90B;}
	.st20{fill:#20B8EA;}
	.st21{fill:#00A8EA;}
	.st22{fill:#33D3F4;}
	.st23{opacity:0.25;fill:#FFFFFF;}
	.st24{fill:#CACBCE;}
	.st25{fill:#2E3545;}
	.st26{fill:#8DAF4A;}
	.st27{fill:#F9C2AF;}
	.st28{fill:#AFDDF4;}
	.st29{fill:#677177;}
	.st30{fill:#FFEDB3;}
	.st31{fill:#695652;}
	.st32{fill:#30A7BF;}
	.st33{fill:#4D5556;}
	.st34{opacity:0.35;}
	.st35{fill:#FFCB04;}
	.st36{fill:#99E9FA;}
	.st37{opacity:0.2;}
	.st38{opacity:3.000000e-02;}
	.st39{fill:#9ECA5B;}
	.st40{fill:#98BA56;}
	.st41{fill:#40EEFF;}
	.st42{fill:#FF6A52;}
	.st43{opacity:0.1;fill:#FFFFFF;}
	.st44{opacity:0.4;}
	.st45{fill:#57606D;}
	.st46{fill:#BACA5B;}
	.st47{opacity:0.25;}
	.st48{opacity:5.000000e-02;fill:#231F20;}
	.st49{opacity:0.2;fill:#FFFFFF;}
	.st50{opacity:0.3;}
	.st51{fill:#FFD82F;}
	.st52{fill:#F4C121;}
	.st53{fill:#EF9D0A;}
	.st54{fill:#F9E532;}
	.st55{fill:#F4C01E;}
	.st56{fill:#FFE14D;}
	.st57{fill:#B7C156;}
	.st58{fill:#DBA92C;}
	.st59{fill:#363D4D;}
	.st60{fill:#3F4656;}
	.st61{fill:#463E33;}
	.st62{fill:none;}
	.st63{opacity:4.000000e-02;}
	.st64{fill:#4DB6AC;}
	.st65{fill:#CADE49;}
	.st66{fill:#9FD343;}
	.st67{fill:#AAD643;}
	.st68{fill:#82C736;}
	.st69{opacity:0.3;fill:#FFFFFF;}
	.st70{fill:#FFD640;}
	.st71{opacity:0.5;}
	.st72{opacity:0.6;}
</style><g><circle class="st9" cx="32" cy="32" r="32"/><g><g><path class="st17" d="M25.5,25.5V12.8c-6.9,0.3-12.4,5.9-12.8,12.8H25.5z"/><path class="st21" d="M26.9,25.9l9.3,9.3c2.2-2.4,3.5-5.5,3.5-9c0-7.2-5.7-13.1-12.8-13.4V25.9z"/><path class="st8" d="M25.9,26.9H12.8C13.1,34,19,39.7,26.2,39.7c3.5,0,6.6-1.3,9-3.5L25.9,26.9z"/></g><g><g><path class="st25" d="M53.2,53.2L53.2,53.2c-1.8,1.8-4.8,1.8-6.6,0L35,41.6l6.6-6.6l11.6,11.6C55,48.4,55,51.3,53.2,53.2z"/></g><rect class="st64" height="5.6" transform="matrix(0.7071 -0.7071 0.7071 0.7071 -18.5377 44.7578)" width="9.4" x="40.1" y="42"/></g><g class="st37"><circle class="st3" cx="20.5" cy="20.5" r="3.7"/></g><path class="st5" d="M35.7,17.1c-0.4-0.4-0.8-0.7-1.2-1c4.1,5.2,3.8,12.7-1,17.5c-4.8,4.8-12.3,5.1-17.5,1c0.3,0.4,0.7,0.8,1,1.2    c5.2,5.2,13.5,5.2,18.7,0C40.9,30.6,40.9,22.2,35.7,17.1z"/><path class="st3" d="M45.9,26.2c0,5.3-2,10.2-5.8,13.9c-3.7,3.7-8.7,5.8-13.9,5.8s-10.2-2-13.9-5.7c0.5,0.5,1.1,0.8,1.8,0.8    c0.7,0,1.4-0.3,1.8-0.8c1-1,1-2.7,0-3.7c2.7,2.7,6.4,4.2,10.2,4.2c3.9,0,7.5-1.5,10.2-4.2c5.6-5.6,5.6-14.8,0-20.4    c-0.5-0.5-0.8-1.1-0.8-1.8c0-0.7,0.3-1.4,0.8-1.8c0.9-0.9,2.5-1,3.5-0.2c0.1,0.1,0.1,0.1,0.2,0.2c0.1,0.1,0.1,0.1,0.2,0.2    C43.9,16.2,45.9,21,45.9,26.2z"/><path class="st2" d="M40,12.1c-1-0.8-2.6-0.7-3.5,0.2c-0.5,0.5-0.8,1.1-0.8,1.8c0,0.7,0.3,1.3,0.8,1.8c-2.7-2.7-6.4-4.2-10.2-4.2    c-3.9,0-7.5,1.5-10.2,4.2c-2.7,2.7-4.2,6.4-4.2,10.2c0,3.9,1.5,7.5,4.2,10.2c1,1,1,2.7,0,3.7c-0.5,0.5-1.1,0.8-1.8,0.8    c-0.7,0-1.3-0.3-1.8-0.8c-0.1-0.1-0.1-0.1-0.2-0.2c-3.6-3.7-5.6-8.5-5.6-13.7c0-5.3,2-10.2,5.8-13.9C16,8.6,21,6.6,26.2,6.6    C31.4,6.6,36.3,8.5,40,12.1z"/></g></g></svg>